<?xml version="1.0" ?>
<svg xmlns="http://www.w3.org/2000/svg" width="1200" height="750">
	<rect x="10" y="10" width="50" height="50" fill="#ffffff" stroke="black" stroke_width="1"/>
	<rect x="860" y="10" width="50" height="50" fill="#ffffff" stroke="black" stroke_width="1"/>
	<rect x="10" y="60" width="50" height="50" fill="#ffffff" stroke="black" stroke_width="1"/>
	<rect x="60" y="60" width="50" height="50" fill="#ffffff" stroke="black" stroke_width="1"/>
	<rect x="610" y="60" width="50" height="50" fill="#ffffff" stroke="black" stroke_width="1"/>
	<rect x="660" y="60" width="50" height="50" fill="#ffffff" stroke="black" stroke_width="1"/>
	<rect x="710" y="60" width="50" height="50" fill="#ffffff" stroke="black" stroke_width="1"/>
	<rect x="760" y="60" width="50" height="50" fill="#ffffff" stroke="black" stroke_width="1"/>
	<rect x="810" y="60" width="50" height="50" fill="#ffffff" stroke="black" stroke_width="1"/>
	<rect x="860" y="60" width="50" height="50" fill="#ffffff" stroke="black" stroke_width="1"/>
	<rect x="10" y="110" width="50" height="50" fill="#ffffff" stroke="black" stroke_width="1"/>
	<rect x="60" y="110" width="50" height="50" fill="#ffffff" stroke="black" stroke_width="1"/>
	<rect x="610" y="110" width="50" height="50" fill="#ffffff" stroke="black" stroke_width="1"/>
	<rect x="660" y="110" width="50" height="50" fill="#ffffff" stroke="black" stroke_width="1"/>
	<rect x="710" y="110" width="50" height="50" fill="#ffffff" stroke="black" stroke_width="1"/>
	<rect x="760" y="110" width="50" height="50" fill="#ffffff" stroke="black" stroke_width="1"/>
	<rect x="810" y="110" width="50" height="50" fill="#ffffff" stroke="black" stroke_width="1"/>
	<rect x="860" y="110" width="50" height="50" fill="#ffffff" stroke="black" stroke_width="1"/>
	<rect x="10" y="160" width="50" height="50" fill="#ffffff" stroke="black" stroke_width="1"/>
	<rect x="60" y="160" width="50" height="50" fill="#ffffff" stroke="black" stroke_width="1"/>
	<rect x="110" y="160" width="50" height="50" fill="#ffffff" stroke="black" stroke_width="1"/>
	<rect x="160" y="160" width="50" height="50" fill="#ffffff" stroke="black" stroke_width="1"/>
	<rect x="210" y="160" width="50" height="50" fill="#ffffff" stroke="black" stroke_width="1"/>
	<rect x="260" y="160" width="50" height="50" fill="#ffffff" stroke="black" stroke_width="1"/>
	<rect x="310" y="160" width="50" height="50" fill="#ffffff" stroke="black" stroke_width="1"/>
	<rect x="360" y="160" width="50" height="50" fill="#ffffff" stroke="black" stroke_width="1"/>
	<rect x="410" y="160" width="50" height="50" fill="#ffffff" stroke="black" stroke_width="1"/>
	<rect x="460" y="160" width="50" height="50" fill="#ffffff" stroke="black" stroke_width="1"/>
	<rect x="510" y="160" width="50" height="50" fill="#ffffff" stroke="black" stroke_width="1"/>
	<rect x="560" y="160" width="50" height="50" fill="#ffffff" stroke="black" stroke_width="1"/>
	<rect x="610" y="160" width="50" height="50" fill="#ffffff" stroke="black" stroke_width="1"/>
	<rect x="660" y="160" width="50" height="50" fill="#ffffff" stroke="black" stroke_width="1"/>
	<rect x="710" y="160" width="50" height="50" fill="#ffffff" stroke="black" stroke_width="1"/>
	<rect x="760" y="160" width="50" height="50" fill="#ffffff" stroke="black" stroke_width="1"/>
	<rect x="810" y="160" width="50" height="50" fill="#ffffff" stroke="black" stroke_width="1"/>
	<rect x="860" y="160" width="50" height="50" fill="#ffffff" stroke="black" stroke_width="1"/>
	<rect x="10" y="210" width="50" height="50" fill="#ffffff" stroke="black" stroke_width="1"/>
	<rect x="60" y="210" width="50" height="50" fill="#ffffff" stroke="black" stroke_width="1"/>
	<rect x="110" y="210" width="50" height="50" fill="#ffffff" stroke="black" stroke_width="1"/>
	<rect x="160" y="210" width="50" height="50" fill="#ffffff" stroke="black" stroke_width="1"/>
	<rect x="210" y="210" width="50" height="50" fill="#ffffff" stroke="black" stroke_width="1"/>
	<rect x="260" y="210" width="50" height="50" fill="#ffffff" stroke="black" stroke_width="1"/>
	<rect x="310" y="210" width="50" height="50" fill="#ffffff" stroke="black" stroke_width="1"/>
	<rect x="360" y="210" width="50" height="50" fill="#ffffff" stroke="black" stroke_width="1"/>
	<rect x="410" y="210" width="50" height="50" fill="#ffffff" stroke="black" stroke_width="1"/>
	<rect x="460" y="210" width="50" height="50" fill="#ffffff" stroke="black" stroke_width="1"/>
	<rect x="510" y="210" width="50" height="50" fill="#ffffff" stroke="black" stroke_width="1"/>
	<rect x="560" y="210" width="50" height="50" fill="#ffffff" stroke="black" stroke_width="1"/>
	<rect x="610" y="210" width="50" height="50" fill="#ffffff" stroke="black" stroke_width="1"/>
	<rect x="660" y="210" width="50" height="50" fill="#ffffff" stroke="black" stroke_width="1"/>
	<rect x="710" y="210" width="50" height="50" fill="#ffffff" stroke="black" stroke_width="1"/>
	<rect x="760" y="210" width="50" height="50" fill="#ffffff" stroke="black" stroke_width="1"/>
	<rect x="810" y="210" width="50" height="50" fill="#ffffff" stroke="black" stroke_width="1"/>
	<rect x="860" y="210" width="50" height="50" fill="#ffffff" stroke="black" stroke_width="1"/>
	<rect x="10" y="260" width="50" height="50" fill="#ffffff" stroke="black" stroke_width="1"/>
	<rect x="60" y="260" width="50" height="50" fill="#ffffff" stroke="black" stroke_width="1"/>
	<rect x="110" y="260" width="50" height="50" fill="#ffffff" stroke="black" stroke_width="1"/>
	<rect x="160" y="260" width="50" height="50" fill="#ffffff" stroke="black" stroke_width="1"/>
	<rect x="210" y="260" width="50" height="50" fill="#ffffff" stroke="black" stroke_width="1"/>
	<rect x="260" y="260" width="50" height="50" fill="#ffffff" stroke="black" stroke_width="1"/>
	<rect x="310" y="260" width="50" height="50" fill="#ffffff" stroke="black" stroke_width="1"/>
	<rect x="360" y="260" width="50" height="50" fill="#ffffff" stroke="black" stroke_width="1"/>
	<rect x="410" y="260" width="50" height="50" fill="#ffffff" stroke="black" stroke_width="1"/>
	<rect x="460" y="260" width="50" height="50" fill="#ffffff" stroke="black" stroke_width="1"/>
	<rect x="510" y="260" width="50" height="50" fill="#ffffff" stroke="black" stroke_width="1"/>
	<rect x="560" y="260" width="50" height="50" fill="#ffffff" stroke="black" stroke_width="1"/>
	<rect x="610" y="260" width="50" height="50" fill="#ffffff" stroke="black" stroke_width="1"/>
	<rect x="660" y="260" width="50" height="50" fill="#ffffff" stroke="black" stroke_width="1"/>
	<rect x="710" y="260" width="50" height="50" fill="#ffffff" stroke="black" stroke_width="1"/>
	<rect x="760" y="260" width="50" height="50" fill="#ffffff" stroke="black" stroke_width="1"/>
	<rect x="810" y="260" width="50" height="50" fill="#ffffff" stroke="black" stroke_width="1"/>
	<rect x="860" y="260" width="50" height="50" fill="#ffffff" stroke="black" stroke_width="1"/>
	<rect x="10" y="310" width="50" height="50" fill="#ffffff" stroke="black" stroke_width="1"/>
	<rect x="60" y="310" width="50" height="50" fill="#ffffff" stroke="black" stroke_width="1"/>
	<rect x="110" y="310" width="50" height="50" fill="#ffffff" stroke="black" stroke_width="1"/>
	<rect x="160" y="310" width="50" height="50" fill="#ffffff" stroke="black" stroke_width="1"/>
	<rect x="210" y="310" width="50" height="50" fill="#ffffff" stroke="black" stroke_width="1"/>
	<rect x="260" y="310" width="50" height="50" fill="#ffffff" stroke="black" stroke_width="1"/>
	<rect x="310" y="310" width="50" height="50" fill="#ffffff" stroke="black" stroke_width="1"/>
	<rect x="360" y="310" width="50" height="50" fill="#ffffff" stroke="black" stroke_width="1"/>
	<rect x="410" y="310" width="50" height="50" fill="#ffffff" stroke="black" stroke_width="1"/>
	<rect x="460" y="310" width="50" height="50" fill="#ffffff" stroke="black" stroke_width="1"/>
	<rect x="510" y="310" width="50" height="50" fill="#ffffff" stroke="black" stroke_width="1"/>
	<rect x="560" y="310" width="50" height="50" fill="#ffffff" stroke="black" stroke_width="1"/>
	<rect x="610" y="310" width="50" height="50" fill="#ffffff" stroke="black" stroke_width="1"/>
	<rect x="660" y="310" width="50" height="50" fill="#ffffff" stroke="black" stroke_width="1"/>
	<rect x="710" y="310" width="50" height="50" fill="#ffffff" stroke="black" stroke_width="1"/>
	<rect x="760" y="310" width="50" height="50" fill="#ffffff" stroke="black" stroke_width="1"/>
	<rect x="810" y="310" width="50" height="50" fill="#ffffff" stroke="black" stroke_width="1"/>
	<rect x="860" y="310" width="50" height="50" fill="#ffffff" stroke="black" stroke_width="1"/>
	<rect x="160" y="420" width="50" height="50" fill="#ffffff" stroke="black" stroke_width="1"/>
	<rect x="210" y="420" width="50" height="50" fill="#ffffff" stroke="black" stroke_width="1"/>
	<rect x="260" y="420" width="50" height="50" fill="#ffffff" stroke="black" stroke_width="1"/>
	<rect x="310" y="420" width="50" height="50" fill="#ffffff" stroke="black" stroke_width="1"/>
	<rect x="360" y="420" width="50" height="50" fill="#ffffff" stroke="black" stroke_width="1"/>
	<rect x="410" y="420" width="50" height="50" fill="#ffffff" stroke="black" stroke_width="1"/>
	<rect x="460" y="420" width="50" height="50" fill="#ffffff" stroke="black" stroke_width="1"/>
	<rect x="510" y="420" width="50" height="50" fill="#ffffff" stroke="black" stroke_width="1"/>
	<rect x="560" y="420" width="50" height="50" fill="#ffffff" stroke="black" stroke_width="1"/>
	<rect x="610" y="420" width="50" height="50" fill="#ffffff" stroke="black" stroke_width="1"/>
	<rect x="660" y="420" width="50" height="50" fill="#ffffff" stroke="black" stroke_width="1"/>
	<rect x="710" y="420" width="50" height="50" fill="#ffffff" stroke="black" stroke_width="1"/>
	<rect x="760" y="420" width="50" height="50" fill="#ffffff" stroke="black" stroke_width="1"/>
	<rect x="810" y="420" width="50" height="50" fill="#ffffff" stroke="black" stroke_width="1"/>
	<rect x="160" y="470" width="50" height="50" fill="#ffffff" stroke="black" stroke_width="1"/>
	<rect x="210" y="470" width="50" height="50" fill="#ffffff" stroke="black" stroke_width="1"/>
	<rect x="260" y="470" width="50" height="50" fill="#ffffff" stroke="black" stroke_width="1"/>
	<rect x="310" y="470" width="50" height="50" fill="#ffffff" stroke="black" stroke_width="1"/>
	<rect x="360" y="470" width="50" height="50" fill="#ffffff" stroke="black" stroke_width="1"/>
	<rect x="410" y="470" width="50" height="50" fill="#ffffff" stroke="black" stroke_width="1"/>
	<rect x="460" y="470" width="50" height="50" fill="#ffffff" stroke="black" stroke_width="1"/>
	<rect x="510" y="470" width="50" height="50" fill="#ffffff" stroke="black" stroke_width="1"/>
	<rect x="560" y="470" width="50" height="50" fill="#ffffff" stroke="black" stroke_width="1"/>
	<rect x="610" y="470" width="50" height="50" fill="#ffffff" stroke="black" stroke_width="1"/>
	<rect x="660" y="470" width="50" height="50" fill="#ffffff" stroke="black" stroke_width="1"/>
	<rect x="710" y="470" width="50" height="50" fill="#ffffff" stroke="black" stroke_width="1"/>
	<rect x="760" y="470" width="50" height="50" fill="#ffffff" stroke="black" stroke_width="1"/>
	<rect x="810" y="470" width="50" height="50" fill="#ffffff" stroke="black" stroke_width="1"/>
</svg>
